<?xml version="1.0" encoding="utf-8"?>
<svg width="2560px" height="1436px" viewBox="0 0 2560 1436" version="1.1" xmlns:xlink="http://www.w3.org/1999/xlink" xmlns="http://www.w3.org/2000/svg">
  <desc>Created with Lunacy</desc>
  <g id="background" transform="translate(0.49804688 0.5)">
    <path d="M0.00194774 0L2174.5 5.51641e-05C2174.5 5.51641e-05 1971.06 22.2877 1971 168.5C1970.95 314.713 2099.49 365.146 2174.5 393.5C2249.52 421.855 2559.87 466.74 2559.5 598.5C2559.14 730.261 2559.5 1074 2559.5 1074C2559.5 1074 2438.01 748.273 2067 746C1695.99 743.727 -2.16299 1012.2 0.00194774 598.5C2.16689 184.805 0.00194774 0 0.00194774 0Z" id="New-shape" fill="#212121" fill-rule="evenodd" stroke="#808080" stroke-width="1" />
    <path d="M18.2371 207.226C-3.44315 272.395 0.236291 338 0.236291 338L509.739 338L509.736 0C509.736 0 504.614 111.912 406.239 149.887C307.863 187.862 39.9174 142.058 18.2371 207.226Z" transform="translate(2048.7656 1097.5)" id="New-shape-2" fill="#FB5314" fill-rule="evenodd" stroke="none" />
  </g>
</svg>