<svg xmlns="http://www.w3.org/2000/svg" width="312" height="287" viewBox="0 0 312 287"><defs><style>.a{fill:rgba(255,255,255,0.26);}</style></defs><circle class="a" cx="11.5" cy="11.5" r="11.5" transform="translate(23 54) rotate(90)"/><circle class="a" cx="11.5" cy="11.5" r="11.5" transform="translate(23) rotate(90)"/><circle class="a" cx="11.5" cy="11.5" r="11.5" transform="translate(216 54) rotate(90)"/><circle class="a" cx="11.5" cy="11.5" r="11.5" transform="translate(216) rotate(90)"/><circle class="a" cx="12" cy="12" r="12" transform="translate(120 54) rotate(90)"/><circle class="a" cx="12" cy="12" r="12" transform="translate(120) rotate(90)"/><circle class="a" cx="11.5" cy="11.5" r="11.5" transform="translate(312 54) rotate(90)"/><circle class="a" cx="11.5" cy="11.5" r="11.5" transform="translate(312) rotate(90)"/><circle class="a" cx="12" cy="12" r="12" transform="translate(168 54) rotate(90)"/><circle class="a" cx="12" cy="12" r="12" transform="translate(168) rotate(90)"/><circle class="a" cx="12" cy="12" r="12" transform="translate(72 54) rotate(90)"/><circle class="a" cx="12" cy="12" r="12" transform="translate(72) rotate(90)"/><circle class="a" cx="11.5" cy="11.5" r="11.5" transform="translate(264 54) rotate(90)"/><circle class="a" cx="11.5" cy="11.5" r="11.5" transform="translate(264) rotate(90)"/><circle class="a" cx="11.5" cy="11.5" r="11.5" transform="translate(23 159) rotate(90)"/><circle class="a" cx="11.5" cy="11.5" r="11.5" transform="translate(216 159) rotate(90)"/><circle class="a" cx="12" cy="12" r="12" transform="translate(120 159) rotate(90)"/><circle class="a" cx="11.5" cy="11.5" r="11.5" transform="translate(312 159) rotate(90)"/><circle class="a" cx="12" cy="12" r="12" transform="translate(168 159) rotate(90)"/><circle class="a" cx="12" cy="12" r="12" transform="translate(72 159) rotate(90)"/><circle class="a" cx="11.5" cy="11.5" r="11.5" transform="translate(264 159) rotate(90)"/><circle class="a" cx="11.5" cy="11.5" r="11.5" transform="translate(23 211) rotate(90)"/><circle class="a" cx="11.5" cy="11.5" r="11.5" transform="translate(216 211) rotate(90)"/><circle class="a" cx="12" cy="12" r="12" transform="translate(120 211) rotate(90)"/><circle class="a" cx="11.5" cy="11.5" r="11.5" transform="translate(312 211) rotate(90)"/><circle class="a" cx="12" cy="12" r="12" transform="translate(168 211) rotate(90)"/><circle class="a" cx="12" cy="12" r="12" transform="translate(72 211) rotate(90)"/><circle class="a" cx="11.5" cy="11.5" r="11.5" transform="translate(264 211) rotate(90)"/><circle class="a" cx="11.5" cy="11.5" r="11.5" transform="translate(23 106) rotate(90)"/><circle class="a" cx="11.5" cy="11.5" r="11.5" transform="translate(216 106) rotate(90)"/><circle class="a" cx="12" cy="12" r="12" transform="translate(120 106) rotate(90)"/><circle class="a" cx="11.5" cy="11.5" r="11.5" transform="translate(312 106) rotate(90)"/><circle class="a" cx="12" cy="12" r="12" transform="translate(168 106) rotate(90)"/><circle class="a" cx="12" cy="12" r="12" transform="translate(72 106) rotate(90)"/><circle class="a" cx="11.5" cy="11.5" r="11.5" transform="translate(264 106) rotate(90)"/><circle class="a" cx="11.5" cy="11.5" r="11.5" transform="translate(23 211) rotate(90)"/><circle class="a" cx="11.5" cy="11.5" r="11.5" transform="translate(216 211) rotate(90)"/><circle class="a" cx="12" cy="12" r="12" transform="translate(120 211) rotate(90)"/><circle class="a" cx="11.5" cy="11.5" r="11.5" transform="translate(312 211) rotate(90)"/><circle class="a" cx="12" cy="12" r="12" transform="translate(168 211) rotate(90)"/><circle class="a" cx="12" cy="12" r="12" transform="translate(72 211) rotate(90)"/><circle class="a" cx="11.5" cy="11.5" r="11.5" transform="translate(264 211) rotate(90)"/><circle class="a" cx="11.5" cy="11.5" r="11.5" transform="translate(23 263) rotate(90)"/><circle class="a" cx="11.5" cy="11.5" r="11.5" transform="translate(216 263) rotate(90)"/><circle class="a" cx="12" cy="12" r="12" transform="translate(120 263) rotate(90)"/><circle class="a" cx="11.5" cy="11.5" r="11.5" transform="translate(312 263) rotate(90)"/><circle class="a" cx="12" cy="12" r="12" transform="translate(168 263) rotate(90)"/><circle class="a" cx="12" cy="12" r="12" transform="translate(72 263) rotate(90)"/><circle class="a" cx="11.5" cy="11.5" r="11.5" transform="translate(264 263) rotate(90)"/></svg>