<svg xmlns="http://www.w3.org/2000/svg" xmlns:xlink="http://www.w3.org/1999/xlink" width="610" height="610" viewBox="0 0 610 610"><defs><style>.a{fill:url(#a);}.b{fill:rgba(255,255,255,0.26);}.c{filter:url(#b);}</style><linearGradient id="a" x1="0.5" x2="0.5" y2="1" gradientUnits="objectBoundingBox"><stop offset="0" stop-color="#ff8001"/><stop offset="0.741" stop-color="#ef2404"/><stop offset="1" stop-color="#f90c03"/></linearGradient><filter id="b" x="0" y="0" width="610" height="610" filterUnits="userSpaceOnUse"><feOffset dy="3" input="SourceAlpha"/><feGaussianBlur stdDeviation="3" result="c"/><feFlood flood-opacity="0.161"/><feComposite operator="in" in2="c"/><feComposite in="SourceGraphic"/></filter></defs><g transform="translate(9 6)"><g class="c" transform="matrix(1, 0, 0, 1, -9, -6)"><circle class="a" cx="296" cy="296" r="296" transform="translate(9 6)"/></g><g transform="translate(41 54)"><circle class="b" cx="11.5" cy="11.5" r="11.5" transform="translate(23 95) rotate(90)"/><circle class="b" cx="11.5" cy="11.5" r="11.5" transform="translate(23) rotate(90)"/><circle class="b" cx="11.5" cy="11.5" r="11.5" transform="translate(348 95) rotate(90)"/><circle class="b" cx="11.5" cy="11.5" r="11.5" transform="translate(348) rotate(90)"/><circle class="b" cx="12" cy="12" r="12" transform="translate(186 95) rotate(90)"/><circle class="b" cx="12" cy="12" r="12" transform="translate(186) rotate(90)"/><circle class="b" cx="11.5" cy="11.5" r="11.5" transform="translate(510 95) rotate(90)"/><circle class="b" cx="11.5" cy="11.5" r="11.5" transform="translate(510) rotate(90)"/><circle class="b" cx="12" cy="12" r="12" transform="translate(267 95) rotate(90)"/><circle class="b" cx="12" cy="12" r="12" transform="translate(267) rotate(90)"/><circle class="b" cx="12" cy="12" r="12" transform="translate(105 95) rotate(90)"/><circle class="b" cx="12" cy="12" r="12" transform="translate(105) rotate(90)"/><circle class="b" cx="11.5" cy="11.5" r="11.5" transform="translate(429 95) rotate(90)"/><circle class="b" cx="11.5" cy="11.5" r="11.5" transform="translate(429) rotate(90)"/><circle class="b" cx="11.5" cy="11.5" r="11.5" transform="translate(23 278) rotate(90)"/><circle class="b" cx="11.5" cy="11.5" r="11.5" transform="translate(348 278) rotate(90)"/><circle class="b" cx="12" cy="12" r="12" transform="translate(186 279) rotate(90)"/><circle class="b" cx="11.5" cy="11.5" r="11.5" transform="translate(510 278) rotate(90)"/><circle class="b" cx="12" cy="12" r="12" transform="translate(267 279) rotate(90)"/><circle class="b" cx="12" cy="12" r="12" transform="translate(105 279) rotate(90)"/><circle class="b" cx="11.5" cy="11.5" r="11.5" transform="translate(429 278) rotate(90)"/><circle class="b" cx="11.5" cy="11.5" r="11.5" transform="translate(23 369) rotate(90)"/><circle class="b" cx="11.5" cy="11.5" r="11.5" transform="translate(348 369) rotate(90)"/><circle class="b" cx="12" cy="12" r="12" transform="translate(186 370) rotate(90)"/><circle class="b" cx="11.5" cy="11.5" r="11.5" transform="translate(510 369) rotate(90)"/><circle class="b" cx="12" cy="12" r="12" transform="translate(267 370) rotate(90)"/><circle class="b" cx="12" cy="12" r="12" transform="translate(105 370) rotate(90)"/><circle class="b" cx="11.5" cy="11.5" r="11.5" transform="translate(429 369) rotate(90)"/><circle class="b" cx="11.5" cy="11.5" r="11.5" transform="translate(23 186) rotate(90)"/><circle class="b" cx="11.5" cy="11.5" r="11.5" transform="translate(348 186) rotate(90)"/><circle class="b" cx="12" cy="12" r="12" transform="translate(186 186) rotate(90)"/><circle class="b" cx="11.5" cy="11.5" r="11.5" transform="translate(510 186) rotate(90)"/><circle class="b" cx="12" cy="12" r="12" transform="translate(267 186) rotate(90)"/><circle class="b" cx="12" cy="12" r="12" transform="translate(105 186) rotate(90)"/><circle class="b" cx="11.5" cy="11.5" r="11.5" transform="translate(429 186) rotate(90)"/><circle class="b" cx="11.5" cy="11.5" r="11.5" transform="translate(23 369) rotate(90)"/><circle class="b" cx="11.5" cy="11.5" r="11.5" transform="translate(348 369) rotate(90)"/><circle class="b" cx="12" cy="12" r="12" transform="translate(186 370) rotate(90)"/><circle class="b" cx="11.5" cy="11.5" r="11.5" transform="translate(510 369) rotate(90)"/><circle class="b" cx="12" cy="12" r="12" transform="translate(267 370) rotate(90)"/><circle class="b" cx="12" cy="12" r="12" transform="translate(105 370) rotate(90)"/><circle class="b" cx="11.5" cy="11.5" r="11.5" transform="translate(429 369) rotate(90)"/><circle class="b" cx="11.5" cy="11.5" r="11.5" transform="translate(23 461) rotate(90)"/><circle class="b" cx="11.5" cy="11.5" r="11.5" transform="translate(348 461) rotate(90)"/><circle class="b" cx="12" cy="12" r="12" transform="translate(186 461) rotate(90)"/><circle class="b" cx="11.5" cy="11.5" r="11.5" transform="translate(510 461) rotate(90)"/><circle class="b" cx="12" cy="12" r="12" transform="translate(267 461) rotate(90)"/><circle class="b" cx="12" cy="12" r="12" transform="translate(105 461) rotate(90)"/><circle class="b" cx="11.5" cy="11.5" r="11.5" transform="translate(429 461) rotate(90)"/></g></g></svg>